<svg width="192" height="55" viewBox="0 0 192 55" version="1.1" xmlns="http://www.w3.org/2000/svg" xmlns:xlink="http://www.w3.org/1999/xlink">
<title>Group 3</title>
<desc>Created using Figma</desc>
<g id="Canvas" transform="translate(734 2832)">
<g id="Group 3">
<g id="Group 2">
<g id="Fill 1">
<use xlink:href="#path0_fill" transform="translate(-637.932 -2831.94)" fill="#1A1919"/>
</g>
<g id="Fill 2">
<use xlink:href="#path1_fill" transform="translate(-734 -2831.94)" fill="#1A1919"/>
</g>
</g>
<g id="Group">
<g id="Fill 4">
<use xlink:href="#path2_fill" transform="translate(-731.178 -2787.9)" fill="#1A1919"/>
</g>
<g id="Fill 5">
<use xlink:href="#path3_fill" transform="translate(-724.287 -2792.65)" fill="#1A1919"/>
</g>
<g id="Fill 6">
<use xlink:href="#path4_fill" transform="translate(-717.44 -2787.9)" fill="#1A1919"/>
</g>
<g id="Fill 7">
<use xlink:href="#path5_fill" transform="translate(-710.592 -2787.9)" fill="#1A1919"/>
</g>
<g id="Fill 8">
<use xlink:href="#path6_fill" transform="translate(-703.743 -2787.9)" fill="#1A1919"/>
</g>
<g id="Fill 9">
<use xlink:href="#path7_fill" transform="translate(-687.098 -2787.9)" fill="#1A1919"/>
</g>
<g id="Fill 10">
<use xlink:href="#path8_fill" transform="translate(-680.251 -2787.9)" fill="#1A1919"/>
</g>
<g id="Fill 11">
<use xlink:href="#path9_fill" transform="translate(-673.531 -2787.9)" fill="#1A1919"/>
</g>
<g id="Fill 12">
<use xlink:href="#path10_fill" transform="translate(-666.811 -2787.9)" fill="#1A1919"/>
</g>
<g id="Fill 13">
<use xlink:href="#path11_fill" transform="translate(-659.963 -2787.9)" fill="#1A1919"/>
</g>
<g id="Fill 14">
<use xlink:href="#path6_fill" transform="translate(-653.244 -2787.9)" fill="#1A1919"/>
</g>
<g id="Fill 15">
<use xlink:href="#path12_fill" transform="translate(-646.524 -2787.9)" fill="#1A1919"/>
</g>
<g id="Fill 17">
<use xlink:href="#path13_fill" transform="translate(-639.505 -2787.9)" fill="#1A1919"/>
</g>
<g id="Fill 18">
<use xlink:href="#path14_fill" transform="translate(-633.34 -2792.11)" fill="#1A1919"/>
</g>
<g id="Fill 20">
<use xlink:href="#path15_fill" transform="translate(-630.29 -2787.9)" fill="#1A1919"/>
</g>
<g id="Fill 21">
<use xlink:href="#path16_fill" transform="translate(-623.442 -2787.9)" fill="#1A1919"/>
</g>
<g id="Fill 22">
<use xlink:href="#path17_fill" transform="translate(-695.536 -2783.72)" fill="#1A1919"/>
</g>
</g>
</g>
</g>
<defs>
<path id="path0_fill" fill-rule="evenodd" d="M 62.2228 17.2639L 66.7422 8.50732L 71.5467 17.2639L 62.2228 17.2639ZM 24.5578 12.4344L 16.7244 12.4344L 16.7244 7.09497L 23.8761 7.09497C 27.7343 7.09497 27.8013 12.4344 24.5578 12.4344ZM 24.5578 24.2936L 16.7244 24.2936L 16.7244 18.9268L 23.8761 18.9268C 27.7343 18.9268 27.8013 24.2936 24.5578 24.2936ZM 78.8734 0L 55.0381 0L 44.5838 21.0263C 43.559 17.5714 40.4109 15.6857 36.0687 15.6857C 40.0871 14.376 44.252 13.3657 44.252 7.99886C 44.252 2.59886 35.6029 0.0937143 29.71 0.0937143L 0 0.0868571L 0 31.1954L 32.106 31.1954C 34.1953 31.1954 37.7604 30.4789 40.6018 28.9989L 39.4804 31.2891L 57.1671 31.2891L 59.9744 24.6983L 73.6666 24.6983L 76.6023 31.3166L 95.1695 31.3166L 78.8734 0L 78.8734 0Z"/>
<path id="path1_fill" fill-rule="evenodd" d="M 23.3422 17.2639L 27.8627 8.50732L 32.6662 17.2639L 23.3422 17.2639ZM 72.2988 0.0377143L 54.4314 0.0377143L 54.4314 27.6823L 54.411 27.6434L 54.411 27.7074L 39.9928 0L 16.1575 0L 0 31.2891L 18.2866 31.2891L 21.0939 24.6983L 34.7861 24.6983L 37.7218 31.3166L 94.5617 31.3166L 94.5617 22.4251L 72.2772 22.4251L 72.2988 0.0377143L 72.2988 0.0377143Z"/>
<path id="path2_fill" fill-rule="evenodd" d="M 1.21676 7.40457L 1.21676 8.52C 1.21676 9.37943 1.79162 9.87314 2.51759 9.87314C 3.24241 9.87314 3.84 9.37943 3.84 8.52L 3.84 7.23314C 3.84 5.12914 0.0215858 6.35314 0.0215858 3.34857L 0.0215858 2.36114C 0.0215858 0.836571 1.13041 0 2.51759 0C 3.90476 0 5.03517 0.836571 5.03517 2.36114L 5.03517 3.49829L 3.81955 3.49829L 3.81955 2.36114C 3.81955 1.50286 3.22083 1.02971 2.51759 1.02971C 1.81321 1.02971 1.23721 1.50286 1.23721 2.36114L 1.23721 3.34857C 1.23721 5.45143 5.05676 4.22857 5.05676 7.23314L 5.05676 8.52C 5.05676 10.0446 3.90476 10.9029 2.51759 10.9029C 1.13041 10.9029 0 10.0446 0 8.52L 0 7.40457L 1.21676 7.40457"/>
<path id="path3_fill" fill-rule="evenodd" d="M 0 0L 1.21676 0L 1.21676 5.94514C 1.728 5.17257 2.51759 4.74286 3.41396 4.74286C 4.39555 4.74286 5.20559 5.408 5.20559 6.58857L 5.20559 15.56L 3.98996 15.56L 3.98996 6.86743C 3.98996 6.18171 3.49917 5.77257 2.94476 5.77257C 1.98476 5.77257 1.21676 6.43886 1.21676 7.55429L 1.21676 15.56L 0 15.56L 0 0"/>
<path id="path4_fill" fill-rule="evenodd" d="M 1.21674 8.45607C 1.21674 9.35779 1.83591 9.87321 2.58232 9.87321C 3.35032 9.87321 3.96836 9.35779 3.96836 8.45607L 3.96836 2.46864C 3.96836 1.56693 3.35032 1.02979 2.58232 1.02979C 1.83591 1.02979 1.21674 1.56693 1.21674 2.46864L 1.21674 8.45607ZM 5.18514 2.46857L 5.18514 8.456C 5.18514 10.0229 4.01155 10.9029 2.58234 10.9029C 1.152 10.9029 0 10.0229 0 8.456L 0 2.46857C 0 0.901714 1.152 0 2.58234 0C 4.01155 0 5.18514 0.901714 5.18514 2.46857L 5.18514 2.46857Z"/>
<path id="path5_fill" fill-rule="evenodd" d="M 1.21564 4.80807L 3.96839 4.80807L 3.96839 2.46864C 3.96839 1.48121 3.35036 1.02979 2.58236 1.02979C 1.83481 1.02979 1.21564 1.48121 1.21564 2.46864L 1.21564 4.80807ZM 1.21562 5.83771L 1.21562 8.456C 1.21562 9.35771 1.83479 9.87314 2.58234 9.87314C 3.35034 9.87314 3.96838 9.35771 3.96838 8.456L 3.96838 7.40457L 5.18514 7.40457L 5.18514 8.456C 5.18514 10.0229 4.01155 10.9029 2.58234 10.9029C 1.152 10.9029 0 10.0229 0 8.456L 0 2.46857C 0 0.901714 1.152 0 2.58234 0C 4.01155 0 5.18514 0.901714 5.18514 2.46857L 5.18514 5.83771L 1.21562 5.83771L 1.21562 5.83771Z"/>
<path id="path6_fill" fill-rule="evenodd" d="M 1.21676 7.40457L 1.21676 8.52C 1.21676 9.37943 1.79162 9.87314 2.51759 9.87314C 3.24241 9.87314 3.84114 9.37943 3.84114 8.52L 3.84114 7.23314C 3.84114 5.12914 0.0215858 6.35314 0.0215858 3.34857L 0.0215858 2.36114C 0.0215858 0.836571 1.13041 0 2.51759 0C 3.90476 0 5.03517 0.836571 5.03517 2.36114L 5.03517 3.49829L 3.81955 3.49829L 3.81955 2.36114C 3.81955 1.50286 3.22196 1.02971 2.51759 1.02971C 1.81321 1.02971 1.23721 1.50286 1.23721 2.36114L 1.23721 3.34857C 1.23721 5.45143 5.05676 4.22857 5.05676 7.23314L 5.05676 8.52C 5.05676 10.0446 3.90476 10.9029 2.51759 10.9029C 1.13041 10.9029 0 10.0446 0 8.52L 0 7.40457L 1.21676 7.40457"/>
<path id="path7_fill" fill-rule="evenodd" d="M 3.96839 5.58057L 2.60281 5.75199C 1.83481 5.85942 1.21564 6.28914 1.21564 7.18971L 1.21564 8.84228C 1.21564 9.50857 1.66439 9.87314 2.19722 9.87314C 3.07202 9.87314 3.96839 9.20799 3.96839 8.09142L 3.96839 5.58057ZM 3.96838 9.70057C 3.47759 10.4949 2.55962 10.9029 1.70641 10.9029C 0.766864 10.9029 0 10.2594 0 9.12229L 0 7.18971C 0 5.62286 1.06566 4.89371 2.38921 4.744L 3.96838 4.55086L 3.96838 2.44686C 3.96838 1.54514 3.37079 1.02971 2.60279 1.02971C 1.83479 1.02971 1.21562 1.54514 1.21562 2.44686L 1.21562 3.49829L 0 3.49829L 0 2.44686C 0 0.88 1.17359 0 2.60279 0C 4.032 0 5.184 0.88 5.184 2.44686L 5.184 10.8171L 3.96838 10.8171L 3.96838 9.70057L 3.96838 9.70057Z"/>
<path id="path8_fill" fill-rule="evenodd" d="M 1.21676 8.52C 1.21676 9.37943 1.79276 9.87314 2.51759 9.87314C 3.24355 9.87314 3.84114 9.37943 3.84114 8.52L 3.84114 7.40457L 5.05676 7.40457L 5.05676 8.52C 5.05676 10.0446 3.90476 10.9029 2.51759 10.9029C 1.13155 10.9029 0 10.0446 0 8.52L 0 2.40343C 0 0.88 1.13155 0 2.51759 0C 3.90476 0 5.05676 0.88 5.05676 2.40343L 5.05676 3.49829L 3.84114 3.49829L 3.84114 2.40343C 3.84114 1.54514 3.24355 1.02971 2.51759 1.02971C 1.79276 1.02971 1.21676 1.54514 1.21676 2.40343L 1.21676 8.52"/>
<path id="path9_fill" fill-rule="evenodd" d="M 1.21676 8.52C 1.21676 9.37943 1.79162 9.87314 2.51759 9.87314C 3.24241 9.87314 3.84 9.37943 3.84 8.52L 3.84 7.40457L 5.05676 7.40457L 5.05676 8.52C 5.05676 10.0446 3.90476 10.9029 2.51759 10.9029C 1.13041 10.9029 0 10.0446 0 8.52L 0 2.40343C 0 0.88 1.13041 0 2.51759 0C 3.90476 0 5.05676 0.88 5.05676 2.40343L 5.05676 3.49829L 3.84 3.49829L 3.84 2.40343C 3.84 1.54514 3.24241 1.02971 2.51759 1.02971C 1.79162 1.02971 1.21676 1.54514 1.21676 2.40343L 1.21676 8.52"/>
<path id="path10_fill" fill-rule="evenodd" d="M 1.21674 4.80807L 3.96836 4.80807L 3.96836 2.46864C 3.96836 1.48121 3.34919 1.02979 2.58119 1.02979C 1.83477 1.02979 1.21674 1.48121 1.21674 2.46864L 1.21674 4.80807ZM 1.21676 5.83771L 1.21676 8.456C 1.21676 9.35771 1.83479 9.87314 2.58121 9.87314C 3.34921 9.87314 3.96838 9.35771 3.96838 8.456L 3.96838 7.40457L 5.184 7.40457L 5.184 8.456C 5.184 10.0229 4.01155 10.9029 2.58121 10.9029C 1.152 10.9029 0 10.0229 0 8.456L 0 2.46857C 0 0.901714 1.152 0 2.58121 0C 4.01155 0 5.184 0.901714 5.184 2.46857L 5.184 5.83771L 1.21676 5.83771L 1.21676 5.83771Z"/>
<path id="path11_fill" fill-rule="evenodd" d="M 1.21562 7.40457L 1.21562 8.52C 1.21562 9.37943 1.79162 9.87314 2.51759 9.87314C 3.24241 9.87314 3.84 9.37943 3.84 8.52L 3.84 7.23314C 3.84 5.12914 0.0215858 6.35314 0.0215858 3.34857L 0.0215858 2.36114C 0.0215858 0.836571 1.13041 0 2.51759 0C 3.90362 0 5.03517 0.836571 5.03517 2.36114L 5.03517 3.49829L 3.81841 3.49829L 3.81841 2.36114C 3.81841 1.50286 3.22083 1.02971 2.51759 1.02971C 1.81321 1.02971 1.23721 1.50286 1.23721 2.36114L 1.23721 3.34857C 1.23721 5.45143 5.05562 4.22857 5.05562 7.23314L 5.05562 8.52C 5.05562 10.0446 3.90362 10.9029 2.51759 10.9029C 1.13041 10.9029 0 10.0446 0 8.52L 0 7.40457L 1.21562 7.40457"/>
<path id="path12_fill" fill-rule="evenodd" d="M 1.21674 8.45607C 1.21674 9.35779 1.83477 9.87321 2.58119 9.87321C 3.34919 9.87321 3.96836 9.35779 3.96836 8.45607L 3.96836 2.46864C 3.96836 1.56693 3.34919 1.02979 2.58119 1.02979C 1.83477 1.02979 1.21674 1.56693 1.21674 2.46864L 1.21674 8.45607ZM 5.184 2.46857L 5.184 8.456C 5.184 10.0229 4.01155 10.9029 2.58121 10.9029C 1.152 10.9029 0 10.0229 0 8.456L 0 2.46857C 0 0.901714 1.152 0 2.58121 0C 4.01155 0 5.184 0.901714 5.184 2.46857L 5.184 2.46857Z"/>
<path id="path13_fill" fill-rule="evenodd" d="M 0 0.0857143L 1.21676 0.0857143L 1.21676 1.65257C 1.68483 0.601143 2.39034 0 3.34921 0C 4.07517 0 4.65117 0.493714 4.65117 1.352L 4.65117 3.49829L 3.43555 3.49829L 3.43555 1.71771C 3.43555 1.288 3.15721 1.02971 2.79479 1.02971C 1.79276 1.02971 1.21676 2.168 1.21676 3.49829L 1.21676 10.8171L 0 10.8171L 0 0.0857143"/>
<path id="path14_fill" fill-rule="evenodd" d="M 0 15.0239L 1.21676 15.0239L 1.21676 4.29248L 0 4.29248L 0 15.0239ZM 0 2.01714L 1.21676 2.01714L 1.21676 0L 0 0L 0 2.01714Z"/>
<path id="path15_fill" fill-rule="evenodd" d="M 1.21674 4.80807L 3.96836 4.80807L 3.96836 2.46864C 3.96836 1.48121 3.35032 1.02979 2.58232 1.02979C 1.83591 1.02979 1.21674 1.48121 1.21674 2.46864L 1.21674 4.80807ZM 1.21676 5.83771L 1.21676 8.456C 1.21676 9.35771 1.83593 9.87314 2.58234 9.87314C 3.35034 9.87314 3.96838 9.35771 3.96838 8.456L 3.96838 7.40457L 5.18514 7.40457L 5.18514 8.456C 5.18514 10.0229 4.01155 10.9029 2.58234 10.9029C 1.152 10.9029 0 10.0229 0 8.456L 0 2.46857C 0 0.901714 1.152 0 2.58234 0C 4.01155 0 5.18514 0.901714 5.18514 2.46857L 5.18514 5.83771L 1.21676 5.83771L 1.21676 5.83771Z"/>
<path id="path16_fill" fill-rule="evenodd" d="M 1.21676 7.40457L 1.21676 8.52C 1.21676 9.37943 1.79276 9.87314 2.51759 9.87314C 3.24355 9.87314 3.84114 9.37943 3.84114 8.52L 3.84114 7.23314C 3.84114 5.12914 0.0215858 6.35314 0.0215858 3.34857L 0.0215858 2.36114C 0.0215858 0.836571 1.13041 0 2.51759 0C 3.90476 0 5.03517 0.836571 5.03517 2.36114L 5.03517 3.49829L 3.81955 3.49829L 3.81955 2.36114C 3.81955 1.50286 3.22196 1.02971 2.51759 1.02971C 1.81434 1.02971 1.23721 1.50286 1.23721 2.36114L 1.23721 3.34857C 1.23721 5.45143 5.05676 4.22857 5.05676 7.23314L 5.05676 8.52C 5.05676 10.0446 3.90476 10.9029 2.51759 10.9029C 1.13041 10.9029 0 10.0446 0 8.52L 0 7.40457L 1.21676 7.40457"/>
<path id="path17_fill" fill-rule="evenodd" d="M 2.2597 2.42623C 2.59939 2.22509 2.81979 2.04795 2.91977 1.89595C 3.01975 1.74509 3.06974 1.57709 3.06974 1.39309C 3.06974 1.17366 3.00157 0.995378 2.86297 0.855949C 2.7255 0.717664 2.55281 0.647949 2.34718 0.647949C 2.13473 0.647949 1.95863 0.716521 1.81776 0.853664C 1.67688 0.990806 1.60645 1.15881 1.60645 1.35766C 1.60645 1.45709 1.63258 1.56109 1.6837 1.67081C 1.73369 1.78052 1.80981 1.89595 1.91205 2.01938L 2.2597 2.42623ZM 3.36173 5.15089L 1.92457 3.35889C 1.5008 3.61374 1.21564 3.84917 1.06681 4.06746C 0.919122 4.2846 0.845276 4.49946 0.845276 4.71317C 0.845276 4.9726 0.94866 5.24232 1.15429 5.52346C 1.35993 5.80346 1.6519 5.94403 2.02909 5.94403C 2.26426 5.94403 2.50738 5.86974 2.75846 5.72232C 3.00954 5.57489 3.21062 5.38403 3.36173 5.15089ZM 3.85363 5.77257C 3.59574 6.06171 3.31399 6.27886 3.00951 6.42286C 2.70391 6.568 2.37444 6.64 2.02111 6.64C 1.36786 6.64 0.849799 6.41829 0.465799 5.97486C 0.155645 5.61257 0 5.208 0 4.76114C 0 4.36457 0.127243 4.00571 0.381728 3.68571C 0.635077 3.36571 1.01453 3.08457 1.52009 2.84229C 1.23266 2.50971 1.04066 2.24 0.945231 2.032C 0.849799 1.82514 0.800947 1.62514 0.800947 1.432C 0.800947 1.04686 0.952047 0.712 1.25198 0.427429C 1.55191 0.141714 1.93022 0 2.3858 0C 2.82206 0 3.17766 0.133714 3.456 0.403429C 3.73207 0.672 3.87067 0.994286 3.87067 1.37143C 3.87067 1.98171 3.4685 2.50286 2.66528 2.93486L 3.81046 4.40229C 3.94111 4.14514 4.04222 3.84686 4.11493 3.50857L 4.92951 3.68343C 4.78978 4.24457 4.60118 4.70514 4.36374 5.06743C 4.65685 5.45943 4.98859 5.78743 5.36009 6.05371L 4.83295 6.68C 4.51711 6.47543 4.18992 6.17257 3.85363 5.77257L 3.85363 5.77257Z"/>
</defs>
</svg>