<svg xmlns="http://www.w3.org/2000/svg" width="50" height="8" viewBox="0 0 50 8"><path d="M41.222 4.331l1.177-2.189 1.25 2.19h-2.427zm-9.809-1.207h-2.04V1.789h1.863c1.004 0 1.022 1.335.177 1.335zm0 2.965h-2.04V4.747h1.863c1.004 0 1.022 1.342.177 1.342zM45.558.015H39.35l-2.723 5.257c-.267-.864-1.087-1.335-2.217-1.335 1.046-.328 2.13-.58 2.13-1.922C36.542.665 34.29.04 32.756.04L25.018.037v7.777h8.36c.545 0 1.473-.179 2.213-.549l-.292.573h4.606l.731-1.648h3.566l.764 1.655h4.835L45.558.015zM6.078 4.331l1.178-2.189 1.25 2.19H6.08zM18.829.025h-4.653v6.911l-.005-.01v.016L10.415.015H4.208L0 7.838h4.762l.731-1.648H9.06l.764 1.655h14.802V5.622h-5.803l.006-5.597z" fill="#1A1919" fill-rule="evenodd"/></svg>