<svg width="192" height="55" viewBox="0 0 192 55" xmlns="http://www.w3.org/2000/svg" xmlns:xlink="http://www.w3.org/1999/xlink"><title>Group 3</title><desc>Created using Figma</desc><use xlink:href="#a" transform="translate(96.068 .06)" fill="#1A1919"/><use xlink:href="#b" transform="translate(0 .06)" fill="#1A1919"/><g fill="#1A1919"><use xlink:href="#c" transform="translate(2.822 44.1)"/><use xlink:href="#d" transform="translate(9.713 39.35)"/><use xlink:href="#e" transform="translate(16.56 44.1)"/><use xlink:href="#f" transform="translate(23.408 44.1)"/><use xlink:href="#g" transform="translate(30.257 44.1)"/><use xlink:href="#h" transform="translate(46.902 44.1)"/><use xlink:href="#i" transform="translate(53.749 44.1)"/><use xlink:href="#j" transform="translate(60.469 44.1)"/><use xlink:href="#k" transform="translate(67.189 44.1)"/><use xlink:href="#l" transform="translate(74.037 44.1)"/><use xlink:href="#g" transform="translate(80.756 44.1)"/><use xlink:href="#m" transform="translate(87.476 44.1)"/><use xlink:href="#n" transform="translate(94.495 44.1)"/><use xlink:href="#o" transform="translate(100.66 39.89)"/><use xlink:href="#p" transform="translate(103.71 44.1)"/><use xlink:href="#q" transform="translate(110.558 44.1)"/><use xlink:href="#r" transform="translate(38.464 48.28)"/></g><defs><path id="a" fill-rule="evenodd" d="M62.223 17.264l4.52-8.757 4.804 8.757h-9.324zm-37.665-4.83h-7.834V7.095h7.152c3.858 0 3.925 5.34.682 5.34zm0 11.86h-7.834v-5.367h7.152c3.858 0 3.925 5.367.682 5.367zM78.873 0H55.038L44.584 21.026c-1.025-3.455-4.173-5.34-8.515-5.34 4.018-1.31 8.183-2.32 8.183-7.687 0-5.4-8.65-7.905-14.542-7.905L0 .087v31.108h32.106c2.09 0 5.654-.716 8.496-2.196l-1.122 2.29h17.687l2.807-6.59h13.693l2.935 6.618H95.17L78.874 0z"/><path id="b" fill-rule="evenodd" d="M23.342 17.264l4.52-8.757 4.804 8.757h-9.324zM72.3.038H54.43v27.644l-.02-.039v.064L39.993 0H16.157L0 31.29h18.287l2.807-6.592h13.692l2.936 6.619h56.84v-8.892H72.277L72.3.038z"/><path id="c" fill-rule="evenodd" d="M1.217 7.405V8.52c0 .86.575 1.353 1.3 1.353.725 0 1.323-.494 1.323-1.353V7.233C3.84 5.13.022 6.353.022 3.35v-.99C.022.837 1.13 0 2.518 0c1.387 0 2.517.837 2.517 2.361v1.137H3.82V2.361c0-.858-.6-1.331-1.302-1.331-.705 0-1.28.473-1.28 1.331v.988c0 2.102 3.819.88 3.819 3.884V8.52c0 1.525-1.152 2.383-2.54 2.383C1.13 10.903 0 10.045 0 8.52V7.405h1.217"/><path id="d" fill-rule="evenodd" d="M0 0h1.217v5.945c.511-.772 1.3-1.202 2.197-1.202.982 0 1.792.665 1.792 1.846v8.971H3.99V6.867c0-.685-.49-1.094-1.045-1.094-.96 0-1.728.666-1.728 1.781v8.006H0V0"/><path id="e" fill-rule="evenodd" d="M1.217 8.456c0 .902.619 1.417 1.365 1.417.768 0 1.386-.515 1.386-1.417V2.47c0-.902-.618-1.44-1.386-1.44-.746 0-1.365.538-1.365 1.44v5.987zM5.185 2.47v5.987c0 1.567-1.173 2.447-2.603 2.447-1.43 0-2.582-.88-2.582-2.447V2.469C0 .902 1.152 0 2.582 0s2.603.902 2.603 2.469z"/><path id="f" fill-rule="evenodd" d="M1.216 4.808h2.752v-2.34c0-.987-.618-1.438-1.386-1.438-.747 0-1.366.451-1.366 1.439v2.34zm0 1.03v2.618c0 .902.619 1.417 1.366 1.417.768 0 1.386-.515 1.386-1.417V7.405h1.217v1.051c0 1.567-1.173 2.447-2.603 2.447-1.43 0-2.582-.88-2.582-2.447V2.469C0 .902 1.152 0 2.582 0s2.603.902 2.603 2.469v3.369h-3.97z"/><path id="g" fill-rule="evenodd" d="M1.217 7.405V8.52c0 .86.575 1.353 1.3 1.353.725 0 1.324-.494 1.324-1.353V7.233c0-2.104-3.82-.88-3.82-3.884V2.36C.022.837 1.132 0 2.519 0c1.387 0 2.517.837 2.517 2.361v1.137H3.82V2.361c0-.858-.598-1.331-1.302-1.331-.705 0-1.28.473-1.28 1.331v.988c0 2.102 3.819.88 3.819 3.884V8.52c0 1.525-1.152 2.383-2.54 2.383C1.13 10.903 0 10.045 0 8.52V7.405h1.217"/><path id="h" fill-rule="evenodd" d="M3.968 5.58l-1.365.172c-.768.107-1.387.537-1.387 1.438v1.652c0 .667.448 1.031.981 1.031.875 0 1.771-.665 1.771-1.782v-2.51zm0 4.12c-.49.795-1.408 1.203-2.262 1.203-.94 0-1.706-.644-1.706-1.78V7.19c0-1.567 1.066-2.296 2.39-2.446l1.578-.193V2.447c0-.902-.597-1.417-1.365-1.417s-1.387.515-1.387 1.417v1.051H0V2.447C0 .88 1.174 0 2.603 0c1.429 0 2.581.88 2.581 2.447v8.37H3.968V9.701z"/><path id="i" fill-rule="evenodd" d="M1.217 8.52c0 .86.576 1.353 1.3 1.353.727 0 1.324-.494 1.324-1.353V7.405h1.216V8.52c0 1.525-1.152 2.383-2.54 2.383C1.133 10.903 0 10.045 0 8.52V2.403C0 .88 1.132 0 2.518 0c1.387 0 2.539.88 2.539 2.403v1.095H3.84V2.403c0-.858-.597-1.373-1.323-1.373-.725 0-1.301.515-1.301 1.373V8.52"/><path id="j" fill-rule="evenodd" d="M1.217 8.52c0 .86.575 1.353 1.3 1.353.725 0 1.323-.494 1.323-1.353V7.405h1.217V8.52c0 1.525-1.152 2.383-2.54 2.383C1.13 10.903 0 10.045 0 8.52V2.403C0 .88 1.13 0 2.518 0c1.387 0 2.539.88 2.539 2.403v1.095H3.84V2.403c0-.858-.598-1.373-1.322-1.373-.726 0-1.301.515-1.301 1.373V8.52"/><path id="k" fill-rule="evenodd" d="M1.217 4.808h2.751v-2.34c0-.987-.619-1.438-1.387-1.438-.746 0-1.364.451-1.364 1.439v2.34zm0 1.03v2.618c0 .902.618 1.417 1.364 1.417.768 0 1.387-.515 1.387-1.417V7.405h1.216v1.051c0 1.567-1.172 2.447-2.603 2.447-1.429 0-2.581-.88-2.581-2.447V2.469C0 .902 1.152 0 2.581 0c1.43 0 2.603.902 2.603 2.469v3.369H1.217z"/><path id="l" fill-rule="evenodd" d="M1.216 7.405V8.52c0 .86.576 1.353 1.302 1.353.724 0 1.322-.494 1.322-1.353V7.233C3.84 5.13.022 6.353.022 3.35v-.99C.022.837 1.13 0 2.518 0c1.386 0 2.517.837 2.517 2.361v1.137H3.818V2.361c0-.858-.597-1.331-1.3-1.331-.705 0-1.28.473-1.28 1.331v.988c0 2.102 3.818.88 3.818 3.884V8.52c0 1.525-1.152 2.383-2.538 2.383C1.13 10.903 0 10.045 0 8.52V7.405h1.216"/><path id="m" fill-rule="evenodd" d="M1.217 8.456c0 .902.618 1.417 1.364 1.417.768 0 1.387-.515 1.387-1.417V2.47c0-.902-.619-1.44-1.387-1.44-.746 0-1.364.538-1.364 1.44v5.987zM5.184 2.47v5.987c0 1.567-1.172 2.447-2.603 2.447-1.429 0-2.581-.88-2.581-2.447V2.469C0 .902 1.152 0 2.581 0c1.43 0 2.603.902 2.603 2.469z"/><path id="n" fill-rule="evenodd" d="M0 .086h1.217v1.567C1.685.6 2.39 0 3.349 0c.726 0 1.302.494 1.302 1.352v2.146H3.436v-1.78c0-.43-.279-.688-.641-.688-1.002 0-1.578 1.138-1.578 2.468v7.32H0V.085"/><path id="o" fill-rule="evenodd" d="M0 15.024h1.217V4.292H0v10.732zM0 2.017h1.217V0H0v2.017z"/><path id="p" fill-rule="evenodd" d="M1.217 4.808h2.751v-2.34c0-.987-.618-1.438-1.386-1.438-.746 0-1.365.451-1.365 1.439v2.34zm0 1.03v2.618c0 .902.619 1.417 1.365 1.417.768 0 1.386-.515 1.386-1.417V7.405h1.217v1.051c0 1.567-1.173 2.447-2.603 2.447-1.43 0-2.582-.88-2.582-2.447V2.469C0 .902 1.152 0 2.582 0s2.603.902 2.603 2.469v3.369H1.217z"/><path id="q" fill-rule="evenodd" d="M1.217 7.405V8.52c0 .86.576 1.353 1.3 1.353.727 0 1.324-.494 1.324-1.353V7.233c0-2.104-3.82-.88-3.82-3.884V2.36C.022.837 1.132 0 2.519 0c1.387 0 2.517.837 2.517 2.361v1.137H3.82V2.361c0-.858-.598-1.331-1.302-1.331-.704 0-1.28.473-1.28 1.331v.988c0 2.102 3.819.88 3.819 3.884V8.52c0 1.525-1.152 2.383-2.54 2.383C1.13 10.903 0 10.045 0 8.52V7.405h1.217"/><path id="r" fill-rule="evenodd" d="M2.26 2.426c.34-.2.56-.378.66-.53a.89.89 0 0 0 .15-.503.727.727 0 0 0-.207-.537.7.7 0 0 0-.516-.208.728.728 0 0 0-.53.206.676.676 0 0 0-.21.504c0 .1.026.203.077.313.05.11.126.225.228.348l.348.407zm1.102 2.725L1.925 3.359c-.424.255-.71.49-.858.708a1.144 1.144 0 0 0-.222.646c0 .26.104.53.31.81.205.28.497.421.874.421.235 0 .478-.074.73-.222.25-.147.452-.338.603-.571zm.492.622a2.67 2.67 0 0 1-.844.65 2.274 2.274 0 0 1-.989.217c-.653 0-1.171-.222-1.555-.665A1.82 1.82 0 0 1 0 4.76c0-.396.127-.755.382-1.075.253-.32.633-.601 1.138-.844-.287-.332-.48-.602-.575-.81a1.431 1.431 0 0 1-.144-.6c0-.385.151-.72.451-1.005C1.552.142 1.93 0 2.386 0c.436 0 .792.134 1.07.403.276.269.415.591.415.968 0 .61-.402 1.132-1.206 1.564L3.81 4.402c.131-.257.232-.555.305-.893l.815.174c-.14.562-.329 1.022-.566 1.384.293.392.625.72.996.987l-.527.626c-.316-.205-.643-.507-.98-.907z"/></defs></svg>