<svg width="58" height="58" viewBox="0 0 58 58" xmlns="http://www.w3.org/2000/svg" xmlns:xlink="http://www.w3.org/1999/xlink"><use xlink:href="#a" fill="#FFF"/><defs><path id="a" fill-rule="evenodd" d="M41.044 0c4.912 0 9.238 1.637 12.279 4.794C56.363 7.834 58 12.044 58 16.956v24.088c0 5.029-1.637 9.355-4.794 12.396-3.04 2.923-7.25 4.56-12.279 4.56H17.073c-4.795 0-9.004-1.52-12.162-4.56C1.637 50.282 0 45.956 0 40.927V16.956C0 6.782 6.782 0 16.956 0h24.088zm8.42 49.58c2.105-1.987 3.157-4.91 3.157-8.536h.234V16.956c0-3.391-1.17-6.315-3.157-8.42-2.105-2.105-5.029-3.157-8.537-3.157H17.073c-3.508 0-6.549 1.052-8.537 3.04-2.105 2.105-3.157 5.029-3.157 8.537v23.971c0 3.625 1.052 6.549 3.157 8.654 2.105 1.987 5.029 3.04 8.537 3.04h23.854c3.508 0 6.432-1.053 8.537-3.04zM29 13.916c-8.185 0-14.968 6.666-14.968 14.968A14.922 14.922 0 0 0 29 43.851c8.302 0 14.968-6.782 14.968-14.968 0-8.185-6.783-14.968-14.968-14.968zm-9.589 14.968c0 5.262 4.327 9.589 9.589 9.589 5.262 0 9.589-4.327 9.589-9.589 0-5.262-4.327-9.589-9.589-9.589-5.262 0-9.589 4.327-9.589 9.59zm28.533-15.318a3.391 3.391 0 1 1-6.783 0 3.391 3.391 0 0 1 6.783 0z"/></defs></svg>