<?xml version="1.0" encoding="UTF-8"?><!DOCTYPE svg PUBLIC "-//W3C//DTD SVG 1.1//EN" "http://www.w3.org/Graphics/SVG/1.1/DTD/svg11.dtd"><svg xmlns="http://www.w3.org/2000/svg" xmlns:xlink="http://www.w3.org/1999/xlink"><defs><path id="path0_fill" fill-rule="evenodd" d="M6 2.5v1L0 6V0l6 2.5z"/><path id="path1_fill" fill-rule="evenodd" d="M0 0h18v2H0V0z"/><path id="path0_fill" fill-rule="evenodd" d="M6 2.5v1L0 6V0l6 2.5z"/><path id="path1_fill" fill-rule="evenodd" d="M0 0h18v2H0V0z"/><path id="b" d="M174 285.806l4.132 4.194 8.868-9"/><filter id="a" width="230.8%" height="288.9%" x="-65.4%" y="-72.2%" filterUnits="objectBoundingBox"><feMorphology in="SourceAlpha" operator="dilate" radius="1.5" result="shadowSpreadOuter1"/><feOffset dy="2" in="shadowSpreadOuter1" result="shadowOffsetOuter1"/><feMorphology in="SourceAlpha" radius="1.5" result="shadowInner"/><feOffset dy="2" in="shadowInner" result="shadowInner"/><feComposite in="shadowOffsetOuter1" in2="shadowInner" operator="out" result="shadowOffsetOuter1"/><feGaussianBlur in="shadowOffsetOuter1" result="shadowBlurOuter1" stdDeviation="2"/><feColorMatrix in="shadowBlurOuter1" values="0 0 0 0 0 0 0 0 0 0.219607843 0 0 0 0 0.223529412 0 0 0 0.2 0"/></filter>
        <path id="path0_stroke" d="M-.8.6l3.75 5 1.6-1.2L.8-.6-.8.6zM3.75 6h1.5V4h-1.5v2zm2.3-.4L9.8.6 8.2-.6l-3.75 5 1.6 1.2zm-5.25 5l3.75-5-1.6-1.2-3.75 5 1.6 1.2zm3.65-5l3.75 5 1.6-1.2-3.75-5-1.6 1.2z"/>
    <path id="a" d="M16 8s-.204 0-.204.208v2.986l-1.89-1.903c-.117-.091-.169-.052-.276-.013-.078.078-.098.222-.016.301l2.182 2.198v3.864l-3.321-1.929-.802-3.005a.21.21 0 0 0-.21-.154c-.122.007-.219.144-.184.263l.693 2.601-2.57-1.493c-.125-.062-.192.005-.28.068-.062.123.028.209.076.285l2.577 1.5-2.59.698c-.117.01-.21.14-.18.256.03.115.175.184.282.135l2.99-.801 3.316 1.928-3.328 1.942-2.978-.807c-.16-.03-.213.096-.266.192a.212.212 0 0 0 .164.205l2.577.699-2.564 1.493a.215.215 0 0 0-.093.29c.057.1.205.13.297.062l2.577-1.493-.7 2.602a.214.214 0 0 0 .143.253.212.212 0 0 0 .251-.144l.802-3.006 3.321-1.929v3.864l-2.182 2.198a.215.215 0 0 0 .003.292.212.212 0 0 0 .29-.003l1.89-1.904v2.993A.213.213 0 0 0 16 24c.108 0 .205-.1.204-.208v-2.993l1.89 1.904a.212.212 0 0 0 .289.003.215.215 0 0 0 .003-.292l-2.182-2.198v-3.864l3.321 1.93.802 3.005a.212.212 0 0 0 .251.144.214.214 0 0 0 .143-.253l-.693-2.602 2.57 1.493c.092.068.24.037.297-.062a.215.215 0 0 0-.093-.29l-2.577-1.5 2.59-.692a.215.215 0 0 0 .155-.247.213.213 0 0 0-.245-.157c-.993.276-1.993.544-2.99.814L16.407 16l3.322-1.935 2.984.8c.107.05.251-.019.281-.134.03-.115-.062-.246-.18-.256l-2.59-.699 2.578-1.5c.118-.124.109-.185.056-.313-.103-.094-.157-.054-.26-.039l-2.57 1.493.693-2.601c.037-.127-.08-.273-.21-.263a.21.21 0 0 0-.184.154l-.802 3.005-3.321 1.929v-3.864l2.182-2.198a.215.215 0 0 0-.003-.292.212.212 0 0 0-.29.004l-1.89 1.903V8.208C16.204 8 16 8 16 8z"/><path id="path0_fill" fill-rule="evenodd" d="M62.223 17.264l4.52-8.757 4.804 8.757h-9.324zm-37.665-4.83h-7.834V7.095h7.152c3.858 0 3.925 5.34.682 5.34zm0 11.86h-7.834v-5.367h7.152c3.858 0 3.925 5.367.682 5.367zM78.873 0H55.038L44.584 21.026c-1.025-3.455-4.173-5.34-8.515-5.34 4.018-1.31 8.183-2.32 8.183-7.687 0-5.4-8.65-7.905-14.542-7.905L0 .087v31.108h32.106c2.09 0 5.654-.716 8.496-2.196l-1.122 2.29h17.687l2.807-6.59h13.693l2.935 6.618H95.17L78.874 0z"/><path id="path1_fill" fill-rule="evenodd" d="M23.342 17.264l4.52-8.757 4.804 8.757h-9.324zM72.3.038H54.43v27.644l-.02-.039v.064L39.993 0H16.157L0 31.29h18.287l2.807-6.592h13.692l2.936 6.619h56.84v-8.892H72.277L72.3.038z"/><path id="path2_fill" fill-rule="evenodd" d="M1.217 7.405V8.52c0 .86.575 1.353 1.3 1.353.725 0 1.323-.494 1.323-1.353V7.233C3.84 5.13.022 6.353.022 3.35V2.36C.022.837 1.13 0 2.518 0c1.387 0 2.517.837 2.517 2.361v1.137H3.82V2.361c0-.858-.6-1.331-1.302-1.331-.705 0-1.28.473-1.28 1.331v.988c0 2.102 3.819.88 3.819 3.884V8.52c0 1.525-1.152 2.383-2.54 2.383C1.13 10.903 0 10.045 0 8.52V7.405h1.217"/><path id="path3_fill" fill-rule="evenodd" d="M0 0h1.217v5.945c.511-.772 1.3-1.202 2.197-1.202.982 0 1.792.665 1.792 1.846v8.971H3.99V6.867c0-.685-.49-1.094-1.045-1.094-.96 0-1.728.666-1.728 1.781v8.006H0V0"/><path id="path4_fill" fill-rule="evenodd" d="M1.217 8.456c0 .902.619 1.417 1.365 1.417.768 0 1.386-.515 1.386-1.417V2.47c0-.902-.618-1.44-1.386-1.44-.746 0-1.365.538-1.365 1.44v5.987zM5.185 2.47v5.987c0 1.567-1.173 2.447-2.603 2.447-1.43 0-2.582-.88-2.582-2.447V2.469C0 .902 1.152 0 2.582 0s2.603.902 2.603 2.469z"/><path id="path5_fill" fill-rule="evenodd" d="M1.216 4.808h2.752v-2.34c0-.987-.618-1.438-1.386-1.438-.747 0-1.366.451-1.366 1.439v2.34zm0 1.03v2.618c0 .902.619 1.417 1.366 1.417.768 0 1.386-.515 1.386-1.417V7.405h1.217v1.051c0 1.567-1.173 2.447-2.603 2.447-1.43 0-2.582-.88-2.582-2.447V2.469C0 .902 1.152 0 2.582 0s2.603.902 2.603 2.469v3.369h-3.97z"/><path id="path6_fill" fill-rule="evenodd" d="M1.217 7.405V8.52c0 .86.575 1.353 1.3 1.353.725 0 1.324-.494 1.324-1.353V7.233c0-2.104-3.82-.88-3.82-3.884V2.36C.022.837 1.132 0 2.519 0c1.387 0 2.517.837 2.517 2.361v1.137H3.82V2.361c0-.858-.598-1.331-1.302-1.331-.705 0-1.28.473-1.28 1.331v.988c0 2.102 3.819.88 3.819 3.884V8.52c0 1.525-1.152 2.383-2.54 2.383C1.13 10.903 0 10.045 0 8.52V7.405h1.217"/><path id="path7_fill" fill-rule="evenodd" d="M3.968 5.58l-1.365.172c-.768.107-1.387.537-1.387 1.438v1.652c0 .667.448 1.031.981 1.031.875 0 1.771-.665 1.771-1.782v-2.51zm0 4.12c-.49.795-1.408 1.203-2.262 1.203-.94 0-1.706-.644-1.706-1.78V7.19c0-1.567 1.066-2.296 2.39-2.446l1.578-.193V2.447c0-.902-.597-1.417-1.365-1.417s-1.387.515-1.387 1.417v1.051H0V2.447C0 .88 1.174 0 2.603 0c1.429 0 2.581.88 2.581 2.447v8.37H3.968V9.701z"/><path id="path8_fill" fill-rule="evenodd" d="M1.217 8.52c0 .86.576 1.353 1.3 1.353.727 0 1.324-.494 1.324-1.353V7.405h1.216V8.52c0 1.525-1.152 2.383-2.54 2.383C1.133 10.903 0 10.045 0 8.52V2.403C0 .88 1.132 0 2.518 0c1.387 0 2.539.88 2.539 2.403v1.095H3.84V2.403c0-.858-.597-1.373-1.323-1.373-.725 0-1.301.515-1.301 1.373V8.52"/><path id="path9_fill" fill-rule="evenodd" d="M1.217 8.52c0 .86.575 1.353 1.3 1.353.725 0 1.323-.494 1.323-1.353V7.405h1.217V8.52c0 1.525-1.152 2.383-2.54 2.383C1.13 10.903 0 10.045 0 8.52V2.403C0 .88 1.13 0 2.518 0c1.387 0 2.539.88 2.539 2.403v1.095H3.84V2.403c0-.858-.598-1.373-1.322-1.373-.726 0-1.301.515-1.301 1.373V8.52"/><path id="path10_fill" fill-rule="evenodd" d="M1.217 4.808h2.751v-2.34c0-.987-.619-1.438-1.387-1.438-.746 0-1.364.451-1.364 1.439v2.34zm0 1.03v2.618c0 .902.618 1.417 1.364 1.417.768 0 1.387-.515 1.387-1.417V7.405h1.216v1.051c0 1.567-1.172 2.447-2.603 2.447-1.429 0-2.581-.88-2.581-2.447V2.469C0 .902 1.152 0 2.581 0c1.43 0 2.603.902 2.603 2.469v3.369H1.217z"/><path id="path11_fill" fill-rule="evenodd" d="M1.216 7.405V8.52c0 .86.576 1.353 1.302 1.353.724 0 1.322-.494 1.322-1.353V7.233C3.84 5.13.022 6.353.022 3.35V2.36C.022.837 1.13 0 2.518 0c1.386 0 2.517.837 2.517 2.361v1.137H3.818V2.361c0-.858-.597-1.331-1.3-1.331-.705 0-1.28.473-1.28 1.331v.988c0 2.102 3.818.88 3.818 3.884V8.52c0 1.525-1.152 2.383-2.538 2.383C1.13 10.903 0 10.045 0 8.52V7.405h1.216"/><path id="path12_fill" fill-rule="evenodd" d="M1.217 8.456c0 .902.618 1.417 1.364 1.417.768 0 1.387-.515 1.387-1.417V2.47c0-.902-.619-1.44-1.387-1.44-.746 0-1.364.538-1.364 1.44v5.987zM5.184 2.47v5.987c0 1.567-1.172 2.447-2.603 2.447-1.429 0-2.581-.88-2.581-2.447V2.469C0 .902 1.152 0 2.581 0c1.43 0 2.603.902 2.603 2.469z"/><path id="path13_fill" fill-rule="evenodd" d="M0 .086h1.217v1.567C1.685.6 2.39 0 3.349 0c.726 0 1.302.494 1.302 1.352v2.146H3.436v-1.78c0-.43-.279-.688-.641-.688-1.002 0-1.578 1.138-1.578 2.468v7.32H0V.085"/><path id="path14_fill" fill-rule="evenodd" d="M0 15.024h1.217V4.292H0v10.732zM0 2.017h1.217V0H0v2.017z"/><path id="path15_fill" fill-rule="evenodd" d="M1.217 4.808h2.751v-2.34c0-.987-.618-1.438-1.386-1.438-.746 0-1.365.451-1.365 1.439v2.34zm0 1.03v2.618c0 .902.619 1.417 1.365 1.417.768 0 1.386-.515 1.386-1.417V7.405h1.217v1.051c0 1.567-1.173 2.447-2.603 2.447-1.43 0-2.582-.88-2.582-2.447V2.469C0 .902 1.152 0 2.582 0s2.603.902 2.603 2.469v3.369H1.217z"/><path id="path16_fill" fill-rule="evenodd" d="M1.217 7.405V8.52c0 .86.576 1.353 1.3 1.353.727 0 1.324-.494 1.324-1.353V7.233c0-2.104-3.82-.88-3.82-3.884V2.36C.022.837 1.132 0 2.519 0c1.387 0 2.517.837 2.517 2.361v1.137H3.82V2.361c0-.858-.598-1.331-1.302-1.331-.704 0-1.28.473-1.28 1.331v.988c0 2.102 3.819.88 3.819 3.884V8.52c0 1.525-1.152 2.383-2.54 2.383C1.13 10.903 0 10.045 0 8.52V7.405h1.217"/><path id="path17_fill" fill-rule="evenodd" d="M2.26 2.426c.34-.2.56-.378.66-.53.1-.15.15-.319.15-.503a.727.727 0 0 0-.207-.537.7.7 0 0 0-.516-.208.728.728 0 0 0-.53.206.676.676 0 0 0-.21.504c0 .1.026.203.077.313.05.11.126.225.228.348l.348.407zm1.102 2.725L1.925 3.359c-.424.255-.71.49-.858.708a1.144 1.144 0 0 0-.222.646c0 .26.104.53.31.81.205.28.497.421.874.421.235 0 .478-.074.73-.222.25-.147.452-.338.603-.571zm.492.622c-.258.289-.54.506-.844.65a2.274 2.274 0 0 1-.989.217c-.653 0-1.171-.222-1.555-.665A1.82 1.82 0 0 1 0 4.76c0-.396.127-.755.382-1.075.253-.32.633-.601 1.138-.844-.287-.332-.48-.602-.575-.81a1.431 1.431 0 0 1-.144-.6c0-.385.151-.72.451-1.005C1.552.142 1.93 0 2.386 0c.436 0 .792.134 1.07.403.276.269.415.591.415.968 0 .61-.402 1.132-1.206 1.564L3.81 4.402c.131-.257.232-.555.305-.893l.815.174c-.14.562-.329 1.022-.566 1.384.293.392.625.72.996.987l-.527.626c-.316-.205-.643-.507-.98-.907z"/></defs><symbol id="arr-head-left" viewBox="0 0 6 6">
<title>E0EAF9BE-25BB-4D20-9288-19310ECF5D0C</title>
<desc>Created with sketchtool.</desc>
<polygon id="Combined-Shape" points="0,2.5 0,3.5 6,6 6,0 "/>
</symbol><symbol id="arr-head-right" viewBox="0 0 6 6">
<title>E0EAF9BE-25BB-4D20-9288-19310ECF5D0C</title>
<desc>Created with sketchtool.</desc>
<polygon id="Combined-Shape" points="6,3.5 6,2.5 0,0 0,6 "/>
</symbol><symbol id="arr-next" viewBox="0 0 24 6"><use xlink:href="#path0_fill" transform="translate(18)"/><use xlink:href="#path1_fill" transform="translate(0 2)"/></symbol><symbol id="arr-prev" viewBox="0 0 24 6"><use xlink:href="#path0_fill" transform="matrix(-1 0 0 1 6 0)"/><use xlink:href="#path1_fill" transform="matrix(-1 0 0 1 24 2)"/></symbol><symbol id="arrow-h" viewBox="0 0 5 6"><path d="M1 0l3 3-3 3" stroke="#BFBFBF" fill="none" fill-rule="evenodd"/></symbol><symbol id="arrow-v-blue" viewBox="0 0 10 7">
  <polyline fill="none" stroke="#1eb4b7" stroke-width="2" points="1 0 4.333 5 5.667 5 9 0" transform="translate(0 1)"/>
</symbol><symbol id="arrow-v" viewBox="0 0 10 7">
  <polyline fill="none" stroke="#1eb4b7" stroke-width="2" points="1 0 4.333 5 5.667 5 9 0" transform="translate(0 1)"/>
</symbol><symbol id="arrow" viewBox="0 0 15 3"><g fill="none" fill-rule="evenodd"><rect width="14" height="1" y="1" fill="#000"/><polyline stroke="#000" points="10 .5 14.5 1.5 10 2.5"/></g></symbol><symbol id="icon-cart" viewBox="0 0 20 24">
    <g fill="none" fill-rule="evenodd" opacity=".15" transform="translate(0 1)">
        <polygon fill="#000" points="1.935 5.111 0 23 20 23 18.065 5.111"/>
        <path stroke="#000" stroke-width="1.8" d="M8.065 10.222V2.556S8.065.319 10 .319s1.935 2.237 1.935 2.237v7.666"/>
    </g>
</symbol><symbol id="icon-check" viewBox="0 0 23 20"><g fill="none" fill-rule="evenodd" transform="translate(-169 -278)"><use fill="#000" filter="url(#a)" xlink:href="#b"/><use stroke="#FFF" stroke-width="3" xlink:href="#b"/></g></symbol><symbol id="icon-clock" viewBox="0 0 14 14"><path fill-rule="evenodd" d="M7 14A7 7 0 1 1 7 0a7 7 0 0 1 0 14zM6 3v5.064l3.274 2.348.888-1.248-2.613-1.88V3H6z" opacity=".15"/></symbol><symbol id="icon-close" viewBox="0 0 11 12">
    <use xlink:href="#path0_stroke" transform="translate(1 1)"/>
    
</symbol><symbol id="icon-favor" viewBox="0 0 22 19">
    <path opacity="0.15" fill-rule="evenodd" d="M6.037 0C2.38 0 .013 3.655 0 6.658-.024 12.18 11 19 11 19s11.024-6.82 11-12.342C21.987 3.655 19.619 0 15.96 0 14.284 0 12.167 1.099 11 2.133 9.831 1.099 7.714 0 6.036 0z"/>
</symbol><symbol id="icon-login" viewBox="0 0 24 24">
  <g fill="none" fill-rule="evenodd">
    <path fill="#60D3D5" d="M4.06195654,20.9994966 C1.57102488,18.8006757 0,15.5838041 0,12 C0,5.372583 5.372583,0 12,0 C18.627417,0 24,5.372583 24,12 C24,15.5838041 22.4289751,18.8006757 19.9380435,20.9994966 C19.4457219,17.0534288 16.0794442,14 12,14 C7.92055581,14 4.55427811,17.0534288 4.06195654,20.9994966 Z M12,12 C14.209139,12 16,10.209139 16,8 C16,5.790861 14.209139,4 12,4 C9.790861,4 8,5.790861 8,8 C8,10.209139 9.790861,12 12,12 Z"/>
    <circle cx="12" cy="12" r="11.5" stroke="#60D3D5"/>
  </g>
</symbol><symbol id="icon-map" viewBox="0 0 14 19"><path fill-rule="evenodd" d="M7 18.5C2.333 14.833 0 11 0 7a7 7 0 1 1 14 0c0 4-2.333 7.833-7 11.5zM7 9a2 2 0 1 0 0-4 2 2 0 0 0 0 4z" opacity=".15"/></symbol><symbol id="icon-menu" viewBox="0 0 20 16"><path fill-rule="evenodd" d="M0 0h20v2H0V0zm0 7h20v2H0V7zm0 7h20v2H0v-2z"/></symbol><symbol id="icon-phone" viewBox="0 0 14 18"><path fill-rule="evenodd" d="M9.174 6.122c-.693-.447-1.187-1.005-.942-1.588.515-1.289 1.3-4.779 3.165-3.38.843.58 1.812 1.413 1.812 1.413s.46.222.58.88c1.187 4.86-5.26 13.32-10.173 13.6-.631-.003-1.014-.361-1.014-.361s-1.047-.698-1.85-1.345c-1.827-1.467 1.274-3.16 2.374-3.974.463-.411 1.167-.14 1.782.444 1.448 1.338 5.924-4.637 4.266-5.689z" opacity=".15"/></symbol><symbol id="icon-search" viewBox="0 0 14 14"><g fill="none" fill-rule="evenodd" stroke="#000" stroke-width="2"><circle cx="5.5" cy="5.5" r="4.5"/><path stroke-linecap="square" d="M9 9l3.036 3.036"/></g></symbol><symbol id="icon-view" viewBox="0 0 40 22"><path fill="#FFF" d="M39.997 10.928L40 11c0 .025 0 .049-.002.073 0 .016-.002.032-.004.047 0 .008 0 .016-.002.024 0 .012-.003.024-.004.035a.702.702 0 0 1-.007.046c-.049.3-.195.583-.418.8-.419.484-.878.938-1.339 1.384-2.492 2.406-5.352 4.552-8.483 6.109-2.001.994-4.139 1.797-6.357 2.183-2.438.424-4.879.403-7.304-.1-4.197-.867-7.999-3.022-11.324-5.6-1.543-1.196-3.061-2.505-4.337-3.976-.559-.644-.559-1.406 0-2.05.419-.484.878-.938 1.339-1.383C4.25 6.185 7.11 4.039 10.24 2.482 12.242 1.488 14.38.685 16.598.3a19.394 19.394 0 0 1 7.304.099c4.197.868 7.999 3.024 11.323 5.6 1.543 1.196 3.061 2.506 4.337 3.977a1.444 1.444 0 0 1 .42.806l.005.04.005.035c0 .007 0 .016.002.024l.003.048zM20 18.488c4.25 0 7.696-3.352 7.696-7.488 0-4.136-3.446-7.488-7.696-7.488S12.304 6.865 12.304 11c0 4.136 3.445 7.488 7.696 7.488zm0-5.01c-1.407 0-2.548-1.11-2.548-2.478 0-1.369 1.14-2.479 2.548-2.479 1.407 0 2.547 1.11 2.547 2.479s-1.14 2.479-2.547 2.479z"/></symbol><symbol id="icon-winter" viewBox="0 0 16 17"><g fill="none" transform="translate(-8 -7)"><use fill="#FFF" fill-rule="evenodd" xlink:href="#a"/><path stroke="#FFF" stroke-width=".2" d="M16.304 10.951l1.718-1.73a.311.311 0 0 1 .431-.005.315.315 0 0 1 .004.433l-2.153 2.128v3.692l3.124-1.783.802-3.004a.31.31 0 0 1 .274-.229c.2-.014.37.198.314.388l-.632 2.37 2.398-1.386.039-.007a.46.46 0 0 1 .104-.015c.07 0 .133.027.223.122.074.177.062.275-.098.438l-2.37 1.38 2.341.632c.18.015.314.206.268.381-.046.176-.256.276-.404.206l-2.908-.811-3.174 1.85 3.104 1.838.689-.187.36-.097c.853-.231 1.386-.376 1.946-.531.159-.036.329.073.364.233a.314.314 0 0 1-.228.365l-2.357.63 2.36 1.373a.314.314 0 0 1 .139.432c-.088.151-.304.196-.434.098l-2.361-1.371.63 2.367a.314.314 0 0 1-.212.376.312.312 0 0 1-.375-.215l-.755-2.944-3.173-1.843-.027 3.621 2.183 2.199a.315.315 0 0 1-.005.432.311.311 0 0 1-.43-.004l-1.72-1.73v2.748A.312.312 0 0 1 16 24.1a.312.312 0 0 1-.304-.308v-2.75l-1.718 1.73a.311.311 0 0 1-.431.005.315.315 0 0 1-.004-.433l2.153-2.128v-3.692l-3.124 1.783-.802 3.006a.312.312 0 0 1-.375.214.314.314 0 0 1-.213-.375l.637-2.368-2.358 1.365a.311.311 0 0 1-.443-.092c-.086-.15-.019-.36.13-.427l2.357-1.373-2.339-.634c-.14-.028-.247-.16-.233-.35v-.001l.025-.046c.085-.154.18-.228.355-.195l2.902.818 3.18-1.856-3.091-1.832-2.975.795a.312.312 0 0 1-.42-.2c-.046-.175.088-.366.25-.378l2.36-.636-2.405-1.412-.033-.046c-.083-.12-.11-.214-.018-.372l.006-.004.063-.047c.103-.07.198-.085.32-.023l2.361 1.371-.63-2.365a.314.314 0 0 1 .274-.39.31.31 0 0 1 .313.227l.755 2.945 3.173 1.842.027-3.62-2.18-2.197c-.122-.117-.105-.324.05-.467h.001a.638.638 0 0 1 .144-.046c.077-.011.148.012.238.082l1.718 1.731V8.208c0-.13.06-.222.157-.271A.328.328 0 0 1 16 7.9h.016l.033.005a.343.343 0 0 1 .098.032c.096.049.157.141.157.27v2.744z"/></g></symbol><symbol id="logo-header" viewBox="0 0 192 55"><use xlink:href="#path0_fill" transform="translate(96.068 .06)" fill="#1A1919"/><use xlink:href="#path1_fill" transform="translate(0 .06)" fill="#1A1919"/><g><use xlink:href="#path2_fill" transform="translate(2.822 44.1)" fill="#1A1919"/><use xlink:href="#path3_fill" transform="translate(9.713 39.35)" fill="#1A1919"/><use xlink:href="#path4_fill" transform="translate(16.56 44.1)" fill="#1A1919"/><use xlink:href="#path5_fill" transform="translate(23.408 44.1)" fill="#1A1919"/><use xlink:href="#path6_fill" transform="translate(30.257 44.1)" fill="#1A1919"/><use xlink:href="#path7_fill" transform="translate(46.902 44.1)" fill="#1A1919"/><use xlink:href="#path8_fill" transform="translate(53.749 44.1)" fill="#1A1919"/><use xlink:href="#path9_fill" transform="translate(60.469 44.1)" fill="#1A1919"/><use xlink:href="#path10_fill" transform="translate(67.189 44.1)" fill="#1A1919"/><use xlink:href="#path11_fill" transform="translate(74.037 44.1)" fill="#1A1919"/><use xlink:href="#path6_fill" transform="translate(80.756 44.1)" fill="#1A1919"/><use xlink:href="#path12_fill" transform="translate(87.476 44.1)" fill="#1A1919"/><use xlink:href="#path13_fill" transform="translate(94.495 44.1)" fill="#1A1919"/><use xlink:href="#path14_fill" transform="translate(100.66 39.89)" fill="#1A1919"/><use xlink:href="#path15_fill" transform="translate(103.71 44.1)" fill="#1A1919"/><use xlink:href="#path16_fill" transform="translate(110.558 44.1)" fill="#1A1919"/><use xlink:href="#path17_fill" transform="translate(38.464 48.28)" fill="#1A1919"/></g></symbol><symbol id="social-fb" viewBox="0 0 32 32"><g fill="none" fill-rule="evenodd"><circle cx="16" cy="16" r="16" fill="#1D1D1D"/><path fill="#FFF" d="M17.193 16.702h2.358l.353-2.845h-2.711v-1.816c0-.823.22-1.384 1.357-1.384l1.45-.001V8.112A18.693 18.693 0 0 0 17.887 8c-2.091 0-3.522 1.325-3.522 3.76v2.097H12v2.845h2.365V24h2.828v-7.298z"/></g></symbol><symbol id="social-in" viewBox="0 0 32 32"><g fill="none" fill-rule="evenodd"><circle cx="16" cy="16" r="16" fill="#1D1D1D"/><path fill="#FFF" d="M21.871 10.157c.734.734 1.129 1.75 1.129 2.936v5.814c0 1.214-.395 2.258-1.157 2.992-.734.706-1.75 1.101-2.964 1.101h-5.758c-1.157 0-2.173-.367-2.936-1.1C9.395 21.136 9 20.092 9 18.878v-5.786C9 10.637 10.637 9 13.093 9h5.814c1.186 0 2.23.395 2.964 1.157zm-.17 8.75h.057v-5.814c0-.819-.282-1.524-.762-2.033-.508-.508-1.214-.762-2.06-.762H13.12c-.847 0-1.58.254-2.06.734-.509.508-.763 1.214-.763 2.06v5.787c0 .875.254 1.58.762 2.089.509.48 1.214.734 2.061.734h5.758c.847 0 1.552-.254 2.06-.734.509-.48.763-1.186.763-2.06zM16 12.36c1.976 0 3.613 1.637 3.613 3.613A3.62 3.62 0 0 1 16 19.585a3.602 3.602 0 0 1-3.613-3.613A3.62 3.62 0 0 1 16 12.359zm0 5.927a2.325 2.325 0 0 1-2.315-2.314A2.325 2.325 0 0 1 16 13.657a2.325 2.325 0 0 1 2.315 2.315A2.325 2.325 0 0 1 16 18.286zm3.754-5.193a.819.819 0 1 1 0-1.637.819.819 0 0 1 0 1.637z"/></g></symbol><symbol id="social-tw" viewBox="0 0 32 32"><g fill="none" fill-rule="evenodd"><circle cx="16" cy="16" r="16" fill="#1D1D1D"/><path fill="#FFF" d="M21.612 12.784a2.808 2.808 0 0 0 1.263-1.536 5.91 5.91 0 0 1-1.825.674 2.91 2.91 0 0 0-2.096-.877c-1.586 0-2.872 1.244-2.872 2.777 0 .218.025.43.074.633a8.248 8.248 0 0 1-5.92-2.902c-.247.41-.388.886-.388 1.396 0 .964.508 1.814 1.278 2.312a2.946 2.946 0 0 1-1.301-.349v.035c0 1.345.99 2.468 2.303 2.724-.24.062-.494.097-.757.097-.185 0-.364-.018-.54-.051.365 1.104 1.426 1.907 2.682 1.929a5.887 5.887 0 0 1-3.567 1.187c-.231 0-.46-.013-.685-.038a8.318 8.318 0 0 0 4.403 1.25c5.283 0 8.17-4.233 8.17-7.904l-.01-.36a5.636 5.636 0 0 0 1.437-1.435c-.515.221-1.068.371-1.649.438z"/></g></symbol><symbol id="social-vk" viewBox="0 0 32 32"><g fill="none" fill-rule="evenodd"><circle cx="16" cy="16" r="16" fill="#1D1D1D"/><path fill="#FFF" d="M15.752 12.02c.516.055.774.14.89.3.03.043.079.15.107.239.06.186.063.398.025 1.988-.023.993-.009 1.298.068 1.518.09.252.29.367.467.272.16-.088.534-.521.778-.905.565-.88.909-1.563 1.323-2.616.083-.208.195-.345.311-.377.047-.015.704-.027 1.513-.03l1.429-.004.12.054c.157.073.217.168.217.342 0 .33-.328 1.007-.89 1.836-.077.115-.367.521-.644.905-.61.846-.743 1.044-.836 1.25-.117.259-.089.472.095.723.053.071.323.357.6.636.773.78 1.124 1.191 1.41 1.641.205.325.284.565.251.77-.016.113-.123.247-.244.313-.144.076-.365.09-1.58.108l-1.15.017-.186-.066c-.474-.166-.79-.443-1.509-1.318-.397-.484-.692-.721-.897-.724-.188 0-.427.264-.53.592-.07.22-.095.389-.116.77-.025.45-.076.555-.339.67-.095.044-1.28.059-1.594.025a4.263 4.263 0 0 1-1.792-.641c-.839-.518-1.352-.983-1.903-1.722-.957-1.286-1.61-2.381-2.403-4.034-.307-.643-.667-1.475-.725-1.673-.058-.205.026-.374.216-.438.065-.022.428-.034 1.264-.046l1.174-.012.137.054c.216.088.307.2.453.574a44.33 44.33 0 0 0 1.013 2.142c.217.404.447.741.644.942.244.252.353.313.525.298.147-.015.186-.049.277-.257.22-.501.256-2.196.058-2.86-.114-.38-.284-.524-.753-.63-.081-.019-.081-.048-.007-.163.181-.274.504-.406 1.12-.46.337-.03 1.336-.032 1.613-.002z"/></g></symbol></svg>