<svg xmlns="http://www.w3.org/2000/svg" width="24" height="24" viewBox="0 0 24 24">
  <g fill="none" fill-rule="evenodd">
    <path fill="#60D3D5" d="M4.06195654,20.9994966 C1.57102488,18.8006757 0,15.5838041 0,12 C0,5.372583 5.372583,0 12,0 C18.627417,0 24,5.372583 24,12 C24,15.5838041 22.4289751,18.8006757 19.9380435,20.9994966 C19.4457219,17.0534288 16.0794442,14 12,14 C7.92055581,14 4.55427811,17.0534288 4.06195654,20.9994966 Z M12,12 C14.209139,12 16,10.209139 16,8 C16,5.790861 14.209139,4 12,4 C9.790861,4 8,5.790861 8,8 C8,10.209139 9.790861,12 12,12 Z"/>
    <circle cx="12" cy="12" r="11.5" stroke="#60D3D5"/>
  </g>
</svg>
