<svg width="88" height="88" xmlns="http://www.w3.org/2000/svg" xmlns:xlink="http://www.w3.org/1999/xlink">
  <use xlink:href="#path0_fill" />
  <use xlink:href="#path1_fill" transform="translate(26 23)"/>
  <defs>
    <path id="path0_fill" fill-rule="evenodd" d="M0 44C0 19.7 19.7 0 44 0s44 19.7 44 44-19.7 44-44 44S0 68.3 0 44z"/>
    <path id="path1_fill" fill-rule="evenodd" d="M18.5 42c-3.618 0-6.818-.832-9.6-2.496-2.782-1.664-4.96-4.074-6.536-7.23C.788 29.12 0 25.362 0 21c0-4.36.788-8.119 2.364-11.275C3.939 6.57 6.118 4.16 8.9 2.495 11.682.833 14.882 0 18.5 0c3.618 0 6.818.832 9.6 2.496 2.782 1.664 4.96 4.074 6.536 7.23C36.212 12.88 37 16.638 37 21c0 4.36-.788 8.119-2.364 11.275-1.575 3.155-3.754 5.565-6.536 7.23C25.318 41.167 22.118 42 18.5 42zm0-10.844c3.112 0 4.669-3.386 4.669-10.156 0-6.77-1.557-10.156-4.67-10.156-3.112 0-4.668 3.386-4.668 10.156 0 6.77 1.556 10.156 4.669 10.156z"/>
  </defs>
</svg>
