<svg xmlns="http://www.w3.org/2000/svg" xmlns:xlink="http://www.w3.org/1999/xlink" width="16" height="17" viewBox="0 0 16 17"><defs><path id="a" d="M16 8s-.204 0-.204.208v2.986l-1.89-1.903c-.117-.091-.169-.052-.276-.013-.078.078-.098.222-.016.301l2.182 2.198v3.864l-3.321-1.929-.802-3.005a.21.21 0 0 0-.21-.154c-.122.007-.219.144-.184.263l.693 2.601-2.57-1.493c-.125-.062-.192.005-.28.068-.062.123.028.209.076.285l2.577 1.5-2.59.698c-.117.01-.21.14-.18.256.03.115.175.184.282.135l2.99-.801 3.316 1.928-3.328 1.942-2.978-.807c-.16-.03-.213.096-.266.192a.212.212 0 0 0 .164.205l2.577.699-2.564 1.493a.215.215 0 0 0-.093.29c.057.1.205.13.297.062l2.577-1.493-.7 2.602a.214.214 0 0 0 .143.253.212.212 0 0 0 .251-.144l.802-3.006 3.321-1.929v3.864l-2.182 2.198a.215.215 0 0 0 .003.292.212.212 0 0 0 .29-.003l1.89-1.904v2.993A.213.213 0 0 0 16 24c.108 0 .205-.1.204-.208v-2.993l1.89 1.904a.212.212 0 0 0 .289.003.215.215 0 0 0 .003-.292l-2.182-2.198v-3.864l3.321 1.93.802 3.005a.212.212 0 0 0 .251.144.214.214 0 0 0 .143-.253l-.693-2.602 2.57 1.493c.092.068.24.037.297-.062a.215.215 0 0 0-.093-.29l-2.577-1.5 2.59-.692a.215.215 0 0 0 .155-.247.213.213 0 0 0-.245-.157c-.993.276-1.993.544-2.99.814L16.407 16l3.322-1.935 2.984.8c.107.05.251-.019.281-.134.03-.115-.062-.246-.18-.256l-2.59-.699 2.578-1.5c.118-.124.109-.185.056-.313-.103-.094-.157-.054-.26-.039l-2.57 1.493.693-2.601c.037-.127-.08-.273-.21-.263a.21.21 0 0 0-.184.154l-.802 3.005-3.321 1.929v-3.864l2.182-2.198a.215.215 0 0 0-.003-.292.212.212 0 0 0-.29.004l-1.89 1.903V8.208C16.204 8 16 8 16 8z"/></defs><g fill="none" transform="translate(-8 -7)"><use fill="#FFF" fill-rule="evenodd" xlink:href="#a"/><path stroke="#FFF" stroke-width=".2" d="M16.304 10.951l1.718-1.73a.311.311 0 0 1 .431-.005.315.315 0 0 1 .004.433l-2.153 2.128v3.692l3.124-1.783.802-3.004a.31.31 0 0 1 .274-.229c.2-.014.37.198.314.388l-.632 2.37 2.398-1.386.039-.007a.46.46 0 0 1 .104-.015c.07 0 .133.027.223.122.074.177.062.275-.098.438l-2.37 1.38 2.341.632c.18.015.314.206.268.381-.046.176-.256.276-.404.206l-2.908-.811-3.174 1.85 3.104 1.838.689-.187.36-.097c.853-.231 1.386-.376 1.946-.531.159-.036.329.073.364.233a.314.314 0 0 1-.228.365l-2.357.63 2.36 1.373a.314.314 0 0 1 .139.432c-.088.151-.304.196-.434.098l-2.361-1.371.63 2.367a.314.314 0 0 1-.212.376.312.312 0 0 1-.375-.215l-.755-2.944-3.173-1.843-.027 3.621 2.183 2.199a.315.315 0 0 1-.005.432.311.311 0 0 1-.43-.004l-1.72-1.73v2.748A.312.312 0 0 1 16 24.1a.312.312 0 0 1-.304-.308v-2.75l-1.718 1.73a.311.311 0 0 1-.431.005.315.315 0 0 1-.004-.433l2.153-2.128v-3.692l-3.124 1.783-.802 3.006a.312.312 0 0 1-.375.214.314.314 0 0 1-.213-.375l.637-2.368-2.358 1.365a.311.311 0 0 1-.443-.092c-.086-.15-.019-.36.13-.427l2.357-1.373-2.339-.634c-.14-.028-.247-.16-.233-.35v-.001l.025-.046c.085-.154.18-.228.355-.195l2.902.818 3.18-1.856-3.091-1.832-2.975.795a.312.312 0 0 1-.42-.2c-.046-.175.088-.366.25-.378l2.36-.636-2.405-1.412-.033-.046c-.083-.12-.11-.214-.018-.372l.006-.004.063-.047c.103-.07.198-.085.32-.023l2.361 1.371-.63-2.365a.314.314 0 0 1 .274-.39.31.31 0 0 1 .313.227l.755 2.945 3.173 1.842.027-3.62-2.18-2.197c-.122-.117-.105-.324.05-.467h.001a.638.638 0 0 1 .144-.046c.077-.011.148.012.238.082l1.718 1.731V8.208c0-.13.06-.222.157-.271A.328.328 0 0 1 16 7.9h.016l.033.005a.343.343 0 0 1 .098.032c.096.049.157.141.157.27v2.744z"/></g></svg>