<svg width="34" height="32" viewBox="0 0 34 32" xmlns="http://www.w3.org/2000/svg" xmlns:xlink="http://www.w3.org/1999/xlink"><g transform="translate(292 -152)"><mask id="a"><use xlink:href="#path0_fill" fill="#fff" transform="translate(-287 156)"/></mask><g mask="url(#a)"><use xlink:href="#path1_stroke_2x" transform="translate(-287 156)"/></g></g><use xlink:href="#path2_fill" transform="translate(3 15)"/><defs><path id="path0_fill" fill-rule="evenodd" d="M12 24c6.627 0 12-5.373 12-12S18.627 0 12 0 0 5.373 0 12"/><path id="path1_stroke_2x" d="M12 26c7.732 0 14-6.268 14-14h-4c0 5.523-4.477 10-10 10v4zm14-14c0-7.732-6.268-14-14-14v4c5.523 0 10 4.477 10 10h4zM12-2C4.268-2-2 4.268-2 12h4C2 6.477 6.477 2 12 2v-4z"/><path id="path2_fill" fill-rule="evenodd" d="M2.455 4L0 0h6L3.545 4h-1.09z"/></defs></svg>