<svg xmlns="http://www.w3.org/2000/svg" width="32" height="32" viewBox="0 0 32 32"><g fill="none" fill-rule="evenodd"><circle cx="16" cy="16" r="16" fill="#1D1D1D"/><path fill="#FFF" d="M15.752 12.02c.516.055.774.14.89.3.03.043.079.15.107.239.06.186.063.398.025 1.988-.023.993-.009 1.298.068 1.518.09.252.29.367.467.272.16-.088.534-.521.778-.905.565-.88.909-1.563 1.323-2.616.083-.208.195-.345.311-.377.047-.015.704-.027 1.513-.03l1.429-.004.12.054c.157.073.217.168.217.342 0 .33-.328 1.007-.89 1.836-.077.115-.367.521-.644.905-.61.846-.743 1.044-.836 1.25-.117.259-.089.472.095.723.053.071.323.357.6.636.773.78 1.124 1.191 1.41 1.641.205.325.284.565.251.77-.016.113-.123.247-.244.313-.144.076-.365.09-1.58.108l-1.15.017-.186-.066c-.474-.166-.79-.443-1.509-1.318-.397-.484-.692-.721-.897-.724-.188 0-.427.264-.53.592-.07.22-.095.389-.116.77-.025.45-.076.555-.339.67-.095.044-1.28.059-1.594.025a4.263 4.263 0 0 1-1.792-.641c-.839-.518-1.352-.983-1.903-1.722-.957-1.286-1.61-2.381-2.403-4.034-.307-.643-.667-1.475-.725-1.673-.058-.205.026-.374.216-.438.065-.022.428-.034 1.264-.046l1.174-.012.137.054c.216.088.307.2.453.574a44.33 44.33 0 0 0 1.013 2.142c.217.404.447.741.644.942.244.252.353.313.525.298.147-.015.186-.049.277-.257.22-.501.256-2.196.058-2.86-.114-.38-.284-.524-.753-.63-.081-.019-.081-.048-.007-.163.181-.274.504-.406 1.12-.46.337-.03 1.336-.032 1.613-.002z"/></g></svg>